{"title":"The Deer Hunter DVDrip English Klam","uid":6516762,"size":1899077727,"categoryP":"video","categoryS":"movies","magnet":"?xt=urn:btih:fc9f629bf1668e38a8ff607e2e40110f92f4dcdc&amp;dn=The+Deer+Hunter+DVDrip+English+Klam&amp;tr=udp%3A%2F%2Ftracker.openbittorrent.com%3A80&amp;tr=udp%3A%2F%2Fopen.demonii.com%3A1337&amp;tr=udp%3A%2F%2Ftracker.coppersurfer.tk%3A6969&amp;tr=udp%3A%2F%2Fexodus.desync.com%3A6969","seeders":1,"leechers":0,"uploader":"Klambake","files":-1,"time":1309860058,"description":"With: Robert De Niro, Christopher Walken en Meryl Streep\n\nMichael, Steven en Nick zijn drie jonge fabrieksarbeiders uit Pennsylvania die opgeroepen worden om in Vietnam te vechten. Voor ze gaan trouwt Steven de zwangere Angela, en hun huwelijksfeest is gelijk ook het afscheidsfeest van de drie jongens. Na een tijdje in de oorlog gevochten te hebben vallen de vrienden in de handen van de Vietcong, en worden ze gevangen genomen in een kamp waar ze gedwongen worden om Russisch roulette te spelen tegen elkaar.\n\nAn in-depth examination of the way that the Vietnam war affects the lives of people in a small industrial town in the USA. \n\n------------------ Dutch Friends ------------------\nYou can find my Friends at: http://www.Film-Test.nl \n------ They got my dutchs subs ---- and more ------\n\nGeneral:\n\nComplete name                    : The Deer Hunter\\The Deer Hunter.avi\nFormat                           : AVI\nFormat/Info                      : Audio Video Interleave\nFile size                        : 1.77 GiB\nDuration                         : 2h 56mn\nOverall bit rate                 : 1 437 Kbps\n\nVideo:\n\nFormat                           : MPEG-4 Visual\nFormat profile                   : Simple@L3\nFormat settings, BVOP            : No\nFormat settings, QPel            : No\nFormat settings, GMC             : No warppoints\nFormat settings, Matrix          : Default (H.263)\nCodec ID                         : XVID\nCodec ID/Hint                    : XviD\nDuration                         : 2h 56mn\nBit rate                         : 1 202 Kbps\nWidth                            : 720 pixels\nHeight                           : 328 pixels\nDisplay aspect ratio             : 2.2:1\nFrame rate                       : 25.000 fps\nColor space                      : YUV\nChroma subsampling               : 4:2:0\nBit depth                        : 8 bits\nScan type                        : Progressive\nBits/(Pixel*Frame)               : 0.204\nStream size                      : 1.48 GiB (84%)\nWriting library                  : XviD 1.1.2 (UTC 2006-11-01)\n\nAudio:\n\nFormat                           : AC-3\nFormat/Info                      : Audio Coding 3\nMode extension                   : CM (complete main)\nCodec ID                         : 2000\nDuration                         : 2h 56mn\nBit rate mode                    : Constant\nBit rate                         : 224 Kbps\nChannel(s)                       : 2 channels\nChannel positions                : Front: L R\nSampling rate                    : 48.0 KHz\nBit depth                        : 16 bits\nStream size                      : 282 MiB (16%)\nAlignment                        : Aligned on interleaves\nInterleave, duration             : 32 ms (0.80 video frame)\nInterleave, preload duration     : 32 ms\n\n","torrent":{"xt":"urn:btih:fc9f629bf1668e38a8ff607e2e40110f92f4dcdc","amp;dn":"The+Deer+Hunter+DVDrip+English+Klam","amp;tr":["udp%3A%2F%2Ftracker.openbittorrent.com%3A80","udp%3A%2F%2Fopen.demonii.com%3A1337","udp%3A%2F%2Ftracker.coppersurfer.tk%3A6969","udp%3A%2F%2Fexodus.desync.com%3A6969"],"infoHash":"fc9f629bf1668e38a8ff607e2e40110f92f4dcdc","infoHashBuffer":{"type":"Buffer","data":[252,159,98,155,241,102,142,56,168,255,96,126,46,64,17,15,146,244,220,220]},"announce":[],"urlList":[]}}